<?xml version="1.0" encoding="utf-8"?>
<!-- Generator: Adobe Illustrator 25.0.1, SVG Export Plug-In . SVG Version: 6.00 Build 0)  -->
<svg version="1.1" id="Layer_1" xmlns="http://www.w3.org/2000/svg" xmlns:xlink="http://www.w3.org/1999/xlink" x="0px" y="0px"
	 viewBox="0 0 254 37.49" style="enable-background:new 0 0 254 37.49;" xml:space="preserve">
<style type="text/css">
	.st0{clip-path:url(#XMLID_6_);}
	.st1{clip-path:url(#XMLID_7_);fill:#EF5455;}
</style>
<g id="XMLID_1_">
	<g id="XMLID_2_">
		<defs>
			<rect id="XMLID_189_" y="0.04" width="26.16" height="31.15"/>
		</defs>
		<clipPath id="XMLID_6_">
			<use xlink:href="#XMLID_189_"  style="overflow:visible;"/>
		</clipPath>
		<g id="XMLID_3_" class="st0">
			<defs>
				<rect id="XMLID_190_" y="0.04" width="26.16" height="31.15"/>
			</defs>
			<clipPath id="XMLID_7_">
				<use xlink:href="#XMLID_190_"  style="overflow:visible;"/>
			</clipPath>
			<path id="XMLID_4_" class="st1" d="M13.71,16.86c0,0.34-0.28,0.62-0.62,0.62s-0.62-0.28-0.62-0.62c0-0.34,0.28-0.62,0.62-0.62
				S13.71,16.51,13.71,16.86 M13.08,18.73c-0.34,0-0.62,0.28-0.62,0.62s0.28,0.62,0.62,0.62s0.62-0.28,0.62-0.62
				S13.43,18.73,13.08,18.73 M12.71,14.53c0.1,0.38,0.65,0.36,0.75-0.03c0.37-1.44,1.44-2.66,2.99-3.33
				c0.75-0.32,1.9-0.83,2.67-2.55c-5.02,0.89-6.63-1.18-12.47-1.07c0.72,2.61,2.16,3.24,3.05,3.62
				C11.27,11.85,12.35,13.08,12.71,14.53 M26.16,29.32c0,1.03-0.84,1.87-1.87,1.87H1.87C0.84,31.18,0,30.35,0,29.32
				c0-1.03,0.84-1.87,1.87-1.87h0.62c0-5.98,2.04-9.39,5.74-10.83c1.15-0.45,1.18-1.5-0.01-2.01C4.42,12.96,2.49,9.75,2.49,3.78
				H1.87C0.84,3.78,0,2.94,0,1.91s0.84-1.87,1.87-1.87H24.3c1.03,0,1.87,0.84,1.87,1.87s-0.84,1.87-1.87,1.87h-0.62
				c0,5.98-1.93,9.19-5.74,10.83c-1.19,0.51-1.16,1.56-0.01,2.01c3.7,1.44,5.74,4.85,5.74,10.83h0.62
				C25.33,27.45,26.16,28.28,26.16,29.32 M4.73,27.45h1.21c1.75-3.57,5.3-6.72,7.14-6.06c2.15,0.77,5.05,2.61,7,6.06h1.35
				c0-6.33-2.46-8.02-4.31-8.74c-1.4-0.54-2.28-1.7-2.3-3.02c-0.02-1.33,0.83-2.53,2.23-3.14c2.17-0.94,4.38-2.71,4.38-8.77H4.73
				c0,6.06,2.22,7.84,4.38,8.77c1.4,0.61,2.26,1.81,2.23,3.14c-0.02,1.32-0.91,2.48-2.3,3.02C7.2,19.43,4.73,21.11,4.73,27.45"/>
		</g>
	</g>
</g>
<g id="XMLID_135_">
	<path id="XMLID_136_" d="M41.41,24.56V6.13h-3.17c-0.62,0-0.93,0.42-0.93,1.26V9.3l-4.14-0.28v-6.9H54.4v6.9L50.26,9.3V7.39
		c0-0.46-0.07-0.78-0.2-0.97c-0.14-0.19-0.46-0.28-0.97-0.28h-2.76v19.41l3.21,0.12v3.45H38.08v-3.29l2.15-0.12
		C41.02,25.62,41.41,25.24,41.41,24.56z"/>
	<path id="XMLID_138_" d="M66.54,8.08c2.03,0,3.64,0.49,4.83,1.48c1.19,0.99,1.79,2.38,1.79,4.16c0,1.19-0.26,2.24-0.77,3.15
		s-1.15,1.62-1.91,2.13c-0.76,0.51-1.68,0.93-2.76,1.26c-1.81,0.54-3.86,0.81-6.13,0.81c0.08,1.44,0.53,2.59,1.34,3.47
		c0.81,0.88,2.06,1.32,3.74,1.32c1.68,0,3.36-0.6,5.03-1.79l1.54,3.29c-0.54,0.49-1.46,0.99-2.74,1.5
		c-1.29,0.51-2.75,0.77-4.41,0.77c-3.3,0-5.73-0.91-7.27-2.74c-1.54-1.83-2.31-4.34-2.31-7.53c0-3.19,0.88-5.87,2.64-8.04
		C60.91,9.16,63.38,8.08,66.54,8.08z M64.7,17.36c0.99-0.18,1.9-0.57,2.74-1.18c0.84-0.61,1.26-1.33,1.26-2.17
		c0-1.65-0.81-2.48-2.44-2.48c-1.52,0-2.68,0.6-3.49,1.81c-0.81,1.21-1.26,2.65-1.34,4.32C62.62,17.63,63.71,17.53,64.7,17.36z"/>
	<path id="XMLID_141_" d="M75.76,11.98V8.69h6.86v2.64c1.52-2.17,3.59-3.25,6.23-3.25s4.42,1.08,5.34,3.25
		c1.52-2.17,3.57-3.25,6.17-3.25c1.95,0,3.45,0.59,4.51,1.77c1.06,1.18,1.58,2.94,1.58,5.3v10.6l2.31,0.12v3.25h-9.66v-3.09
		l1.34-0.12c0.41-0.05,0.7-0.17,0.87-0.35c0.18-0.18,0.28-0.49,0.3-0.95v-8.4c0-1.49-0.17-2.59-0.51-3.31
		c-0.34-0.72-1.13-1.08-2.38-1.08s-2.2,0.38-2.86,1.14c-0.66,0.76-0.99,1.77-0.99,3.05v9.74l2.23,0.12v3.25h-9.58v-3.09l1.34-0.12
		c0.41-0.05,0.7-0.17,0.89-0.35c0.19-0.18,0.28-0.51,0.28-0.99V16.2c0-1.49-0.17-2.59-0.51-3.31s-1.14-1.08-2.4-1.08
		c-1.26,0-2.21,0.39-2.86,1.18c-0.65,0.79-0.97,1.76-0.97,2.92v9.83l2.19,0.12v3.25h-9.58v-3.09l1.34-0.12
		c0.41-0.05,0.7-0.17,0.89-0.35c0.19-0.18,0.28-0.51,0.28-0.99h0.04V13.36c0-0.46-0.07-0.78-0.22-0.95
		c-0.15-0.18-0.41-0.28-0.79-0.3L75.76,11.98z"/>
	<path id="XMLID_143_" d="M113.44,32.97V13.32c0-0.46-0.08-0.78-0.22-0.95c-0.15-0.18-0.41-0.26-0.79-0.26l-1.71-0.12V8.69h6.86
		v2.64c0.43-0.81,1.22-1.56,2.35-2.23c1.14-0.68,2.49-1.02,4.06-1.02c4.9,0,7.35,3.44,7.35,10.31c0,3.65-0.8,6.46-2.4,8.4
		c-1.6,1.95-3.76,2.92-6.5,2.92c-1.62,0-3.07-0.39-4.34-1.18v5.6l3.29,0.16v3.21h-10.48v-3.09l1.34-0.12
		c0.41-0.05,0.7-0.17,0.89-0.35C113.34,33.79,113.44,33.46,113.44,32.97z M126.31,18.8c0-4.52-1.37-6.78-4.1-6.78
		c-1.14,0-2.1,0.35-2.9,1.04c-0.8,0.69-1.2,1.51-1.2,2.46v9.34c1.03,0.68,2.28,1.02,3.76,1.02c1.47,0,2.58-0.68,3.33-2.03
		C125.94,22.48,126.31,20.8,126.31,18.8z"/>
	<path id="XMLID_146_" d="M134.23,18.88c0-2,0.3-3.74,0.89-5.22c0.6-1.47,1.39-2.6,2.4-3.39c1.92-1.46,4.05-2.19,6.37-2.19
		c1.62,0,3,0.26,4.12,0.79c1.12,0.53,2,1.14,2.64,1.83c0.64,0.69,1.18,1.69,1.62,3c0.45,1.31,0.67,2.86,0.67,4.65
		c0,3.74-0.91,6.56-2.72,8.49c-1.81,1.92-4.13,2.88-6.96,2.88s-5.04-0.91-6.64-2.74C135.02,25.15,134.23,22.45,134.23,18.88z
		 M143.56,26.15c2.95,0,4.43-2.38,4.43-7.15c0-2.41-0.33-4.24-0.99-5.48c-0.66-1.24-1.77-1.87-3.33-1.87c-1.56,0-2.7,0.6-3.43,1.79
		c-0.73,1.19-1.1,2.82-1.1,4.87c0,3.82,0.7,6.21,2.11,7.19C141.87,25.93,142.64,26.15,143.56,26.15z"/>
	<path id="XMLID_149_" d="M157.94,32.97V13.32c0-0.46-0.08-0.78-0.22-0.95c-0.15-0.18-0.41-0.26-0.79-0.26l-1.71-0.12V8.69h6.86
		v2.64c0.43-0.81,1.22-1.56,2.35-2.23c1.14-0.68,2.49-1.02,4.06-1.02c4.9,0,7.35,3.44,7.35,10.31c0,3.65-0.8,6.46-2.4,8.4
		c-1.6,1.95-3.76,2.92-6.5,2.92c-1.62,0-3.07-0.39-4.34-1.18v5.6l3.29,0.16v3.21h-10.48v-3.09l1.34-0.12
		c0.41-0.05,0.7-0.17,0.89-0.35C157.84,33.79,157.94,33.46,157.94,32.97z M170.81,18.8c0-4.52-1.37-6.78-4.1-6.78
		c-1.14,0-2.1,0.35-2.9,1.04c-0.8,0.69-1.2,1.51-1.2,2.46v9.34c1.03,0.68,2.28,1.02,3.76,1.02c1.47,0,2.58-0.68,3.33-2.03
		C170.44,22.48,170.81,20.8,170.81,18.8z"/>
	<path id="XMLID_152_" d="M188.92,8.08c2.03,0,3.64,0.49,4.83,1.48c1.19,0.99,1.79,2.38,1.79,4.16c0,1.19-0.26,2.24-0.77,3.15
		s-1.15,1.62-1.91,2.13c-0.76,0.51-1.68,0.93-2.76,1.26c-1.81,0.54-3.86,0.81-6.13,0.81c0.08,1.44,0.53,2.59,1.34,3.47
		c0.81,0.88,2.06,1.32,3.74,1.32c1.68,0,3.36-0.6,5.03-1.79l1.54,3.29c-0.54,0.49-1.46,0.99-2.74,1.5
		c-1.29,0.51-2.75,0.77-4.41,0.77c-3.3,0-5.73-0.91-7.27-2.74c-1.54-1.83-2.31-4.34-2.31-7.53c0-3.19,0.88-5.87,2.64-8.04
		C183.29,9.16,185.75,8.08,188.92,8.08z M187.07,17.36c0.99-0.18,1.9-0.57,2.74-1.18c0.84-0.61,1.26-1.33,1.26-2.17
		c0-1.65-0.81-2.48-2.44-2.48c-1.52,0-2.68,0.6-3.49,1.81c-0.81,1.21-1.26,2.65-1.34,4.32C184.99,17.63,186.08,17.53,187.07,17.36z"
		/>
	<path id="XMLID_155_" d="M208.57,8.08c1.16,0,2.27,0.16,3.33,0.49v-4.1c0-0.59-0.35-0.92-1.06-0.97l-1.75-0.12V0.16h7.55v24.69
		c0.03,0.62,0.37,0.93,1.01,0.93l1.42,0.08v3.25h-6.58v-2.4l-0.12-0.04c-1.22,1.98-3.06,2.96-5.52,2.96c-3.09,0-5.25-1.03-6.5-3.09
		c-1.14-1.87-1.71-4.15-1.71-6.86c0-3.52,0.87-6.33,2.62-8.45C203.03,9.14,205.46,8.08,208.57,8.08z M211.9,22.78V12.26
		c-0.97-0.43-2-0.65-3.09-0.65c-1.79,0-3.09,0.72-3.92,2.15c-0.83,1.44-1.24,3.26-1.24,5.48c0,4.55,1.46,6.82,4.38,6.82
		c1.11,0,2.03-0.32,2.76-0.95C211.53,24.48,211.9,23.7,211.9,22.78z"/>
	<path id="XMLID_158_" d="M228.79,8.69v17.05l2.31,0.12v3.25h-9.66v-3.09l1.34-0.12c0.78-0.08,1.18-0.51,1.18-1.3V13.32
		c0-0.46-0.07-0.77-0.22-0.93c-0.15-0.16-0.41-0.24-0.79-0.24l-1.42-0.08V8.69H228.79z M223.67,5.18c-0.57-0.55-0.85-1.27-0.85-2.13
		c0-0.87,0.28-1.59,0.85-2.17C224.24,0.29,224.98,0,225.9,0c0.92,0,1.67,0.29,2.25,0.87c0.58,0.58,0.87,1.31,0.87,2.17
		c0,0.87-0.29,1.58-0.87,2.13c-0.58,0.55-1.33,0.83-2.25,0.83C224.98,6.01,224.24,5.73,223.67,5.18z"/>
	<path id="XMLID_161_" d="M251.69,9.5v15.1c0,0.43,0.07,0.73,0.22,0.89c0.15,0.16,0.41,0.26,0.79,0.28l1.3,0.08v3.25h-6.46v-2.35
		l-0.12-0.04c-1.35,1.95-3.21,2.92-5.56,2.92c-2.76,0-4.81-0.88-6.13-2.64c-1.33-1.76-1.99-4.17-1.99-7.23
		c0-3.68,0.89-6.55,2.68-8.61s4.47-3.09,8.04-3.09C246.76,8.08,249.17,8.55,251.69,9.5z M246.98,22.66V12.14
		c-0.76-0.35-1.8-0.53-3.13-0.53c-1.81,0-3.13,0.73-3.94,2.19c-0.81,1.46-1.22,3.4-1.22,5.81c0,4.39,1.41,6.58,4.22,6.58
		c1.19,0,2.17-0.36,2.92-1.08C246.6,24.4,246.98,23.58,246.98,22.66z"/>
</g>
</svg>
